<svg xmlns="http://www.w3.org/2000/svg" version="1.1" xmlns:xlink="http://www.w3.org/1999/xlink" xmlns:svgjs="http://svgjs.dev/svgjs" width="1500" height="1500" viewBox="0 0 1500 1500"><rect width="1500" height="1500" fill="#000000"></rect><g transform="matrix(0.6666666666666666,0,0,0.6666666666666666,249.39393939393938,637.6659180327824)"><svg viewBox="0 0 396 89" data-background-color="#110f10" preserveAspectRatio="xMidYMid meet" height="337" width="1500" xmlns="http://www.w3.org/2000/svg" xmlns:xlink="http://www.w3.org/1999/xlink"><g id="tight-bounds" transform="matrix(1,0,0,1,0.2400000000000091,0.00029656564845481626)"><svg viewBox="0 0 395.52 88.99940686870312" height="88.99940686870312" width="395.52"><g><svg viewBox="0 0 397.4975999999999 89.44440390304662" height="88.99940686870312" width="395.52"><g><rect width="397.4975999999999" height="2.73956395656861" x="0" y="49.15471236333501" fill="#ffffff" opacity="1" stroke-width="0" stroke="transparent" fill-opacity="1" class="rect-yte-0" data-fill-palette-color="secondary" rx="1%" id="yte-0" data-palette-color="#ffffff"></rect></g><g transform="matrix(1,0,0,1,0.9887999999999693,59.065909714062286)"><svg viewBox="0 0 395.52 30.37849418898433" height="30.37849418898433" width="395.52"><g id="textblocktransform"><svg viewBox="0 0 395.52 30.37849418898433" height="30.37849418898433" width="395.52" id="textblock"><g><svg viewBox="0 0 395.52 30.37849418898433" height="30.37849418898433" width="395.52"><g transform="matrix(1,0,0,1,0,0)"><svg width="395.52" viewBox="1.05 -37.5 496.46 38" height="30.37849418898433" data-palette-color="#b31d1d"><g class="wordmark-text-0" data-fill-palette-color="primary" id="text-0"><path d="M13.55-10.65Q13.55-6.05 15.13-3.6 16.7-1.15 20.8-1.15 24.9-1.15 27.1-3.7 29.3-6.25 29.3-11.45L29.3-11.45 29.3-34.05 26.05-34.05 26.05-35 33.35-35 33.35-34.05 30.6-34.05 30.6-11.8Q30.6-5.6 27.85-2.55 25.1 0.5 18.13 0.5 11.15 0.5 7.48-2.4 3.8-5.3 3.8-12.35L3.8-12.35 3.8-34.05 1.05-34.05 1.05-35 16.8-35 16.8-34.05 13.55-34.05 13.55-10.65ZM52.2-0.95L55.75-0.95 52.1-11.75 42.2-11.75 38.35-0.95 42.1-0.95 42.1 0 34.45 0 34.45-0.95 36.8-0.95 49.55-35.3 53.65-35.3 66.25-0.95 68.55-0.95 68.55 0 52.2 0 52.2-0.95ZM51.7-12.85L47.35-25.95 42.65-12.85 51.7-12.85ZM69.89-33.9L69.89-35 95.89-35 96.39-25.1 95.5-25.1Q93.39-30.15 91.09-32.02 88.8-33.9 84.34-33.9L84.34-33.9 82.59-33.9 82.59-18.45 84.3-18.45Q86.64-18.45 88.25-20.23 89.84-22 90.5-25L90.5-25 91.25-25 91.25-10.2 90.39-10.2Q89.5-13.95 87.97-15.55 86.44-17.15 83.8-17.15L83.8-17.15 82.59-17.15 82.59-1.1 84.5-1.1Q89.09-1.1 92.32-3.85 95.55-6.6 96.75-10.9L96.75-10.9 97.75-10.9 97.34 0 69.89 0 69.89-1.1 72.84-1.1 72.84-33.9 69.89-33.9Z" fill="#ffffff" data-fill-palette-color="primary"></path><path d="M109.05-35L138.55-35 139.05-22.45 138.1-22.45Q135.9-29.1 134.2-31.53 132.5-33.95 129.3-33.95L129.3-33.95 128.7-33.95 128.7-1.05 132.95-1.05 132.95 0 114.7 0 114.7-1.05 118.95-1.05 118.95-33.95 118.3-33.95Q115.1-33.95 113.35-31.43 111.6-28.9 109.5-22.45L109.5-22.45 108.55-22.45 109.05-35ZM158.09-22.4L158.09-22.4Q156.25-22.4 154.85-20 153.45-17.6 153.45-14.3L153.45-14.3 153.45-0.9 157-0.9 157 0 141.4 0 141.4-0.9 144.15-0.9 144.15-22.9 141.4-22.9 141.4-23.8 153.45-23.8 153.45-19Q154.1-21.55 155.95-22.93 157.8-24.3 160.15-24.3 162.5-24.3 163.97-22.98 165.45-21.65 165.45-19.23 165.45-16.8 164.34-15.5 163.25-14.2 160.97-14.2 158.7-14.2 157.62-15.7 156.55-17.2 157.34-19.85L157.34-19.85 159.15-19.85Q160.4-22.4 158.09-22.4ZM178.14-11.75L178.14-11.75 179.59-11.75 179.59-15.6Q179.59-20.35 179.07-21.98 178.54-23.6 177.04-23.6L177.04-23.6Q176.14-23.6 175.42-23.13 174.69-22.65 174.69-21.83 174.69-21 174.99-20.15L174.99-20.15 176.24-20.15Q176.64-19.1 176.64-17.63 176.64-16.15 175.39-15.08 174.14-14 172.24-14L172.24-14Q167.94-14 167.94-18.15L167.94-18.15Q167.94-24.3 178.39-24.3L178.39-24.3Q184.34-24.3 186.62-22.28 188.89-20.25 188.89-14.85L188.89-14.85 188.89-4.7Q188.89-2.1 190.34-2.1L190.34-2.1Q192.04-2.1 192.34-7.25L192.34-7.25 193.09-7.2Q192.89-2.8 191.44-1.15 189.99 0.5 186.69 0.5L186.69 0.5Q180.69 0.5 179.79-3.2L179.79-3.2Q179.14-1.3 177.84-0.4 176.54 0.5 174.04 0.5L174.04 0.5Q166.64 0.5 166.64-5.55L166.64-5.55Q166.64-9.1 169.47-10.43 172.29-11.75 178.14-11.75ZM176.14-5.6Q176.14-3 176.42-2.25 176.69-1.5 177.47-1.5 178.24-1.5 178.92-2.78 179.59-4.05 179.59-6.3L179.59-6.3 179.59-10.95 179.24-10.95Q176.14-10.95 176.14-6.4L176.14-6.4 176.14-5.6ZM203.74-10.35Q203.74-5.1 204.29-3.38 204.84-1.65 206.32-1.65 207.79-1.65 208.87-2.95 209.94-4.25 209.94-6.8L209.94-6.8 209.94-17.7Q209.94-19.85 209.09-21.35 208.24-22.85 206.59-22.85 204.94-22.85 204.34-20.65 203.74-18.45 203.74-12.95L203.74-12.95 203.74-10.35ZM221.69 0L210.59 0 210.04-3.5Q208.34 0.5 203.14 0.5L203.14 0.5Q198.84 0.5 196.47-2.6 194.09-5.7 194.09-11.85L194.09-11.85Q194.09-24.3 203.99-24.3L203.99-24.3Q208.39-24.3 209.79-21.85L209.79-21.85 209.79-36.6 206.74-36.6 206.74-37.5 219.24-37.5 219.24-0.9 221.69-0.9 221.69 0ZM230.34-27.25Q227.69-27.25 226.56-28.6 225.44-29.95 225.44-31.95 225.44-33.95 226.66-35.25 227.89-36.55 230.39-36.55 232.89-36.55 234.19-35.38 235.49-34.2 235.49-32.02 235.49-29.85 234.24-28.55 232.99-27.25 230.34-27.25ZM222.79-22.9L222.79-23.8 235.04-23.8 235.04-0.9 237.84-0.9 237.84 0 222.99 0 222.99-0.9 225.74-0.9 225.74-22.9 222.79-22.9ZM241.34-7.15L241.34-7.15 241.34-22.9 238.59-22.9 238.59-23.8 241.34-23.8 241.34-30.25 250.64-32.55 250.64-23.8 257.14-23.8 257.14-22.9 250.64-22.9 250.64-6.05Q250.64-3.7 251.11-2.6 251.59-1.5 253.09-1.5 254.59-1.5 255.71-3 256.84-4.5 257.19-7.1L257.19-7.1 258.04-7Q257.64-3.55 255.84-1.53 254.04 0.5 249.89 0.5 245.74 0.5 243.54-1.15 241.34-2.8 241.34-7.15ZM265.88-27.25Q263.23-27.25 262.11-28.6 260.98-29.95 260.98-31.95 260.98-33.95 262.21-35.25 263.43-36.55 265.93-36.55 268.43-36.55 269.73-35.38 271.03-34.2 271.03-32.02 271.03-29.85 269.78-28.55 268.53-27.25 265.88-27.25ZM258.33-22.9L258.33-23.8 270.58-23.8 270.58-0.9 273.38-0.9 273.38 0 258.53 0 258.53-0.9 261.28-0.9 261.28-22.9 258.33-22.9ZM290.53-9.85L290.53-9.85 290.53-14.1Q290.53-18.95 290.01-21.18 289.48-23.4 287.58-23.4L287.58-23.4Q286.48-23.4 285.81-22.78 285.13-22.15 284.83-20.7L284.83-20.7Q284.38-18.45 284.38-13.85L284.38-13.85 284.38-9.95Q284.38-4.5 284.71-3.4 285.03-2.3 285.38-1.6L285.38-1.6Q285.93-0.4 287.53-0.4L287.53-0.4Q289.48-0.4 290.08-2.65L290.08-2.65Q290.53-4.25 290.53-9.85ZM287.43 0.5Q281.18 0.5 277.98-2.7 274.78-5.9 274.78-11.88 274.78-17.85 278.21-21.08 281.63-24.3 287.83-24.3 294.03-24.3 297.08-21.33 300.13-18.35 300.13-12.25L300.13-12.25Q300.13 0.5 287.43 0.5L287.43 0.5ZM301.63-22.9L301.63-23.8 313.68-23.8 313.68-19.2Q314.48-21.5 316.13-22.9 317.78-24.3 321.13-24.3L321.13-24.3Q328.88-24.3 328.88-15.95L328.88-15.95 328.88-0.9 331.68-0.9 331.68 0 317.53 0 317.53-0.9 319.58-0.9 319.58-17.15Q319.58-20.15 319.18-21.03 318.78-21.9 317.73-21.9L317.73-21.9Q316.13-21.9 314.9-19.8 313.68-17.7 313.68-14.7L313.68-14.7 313.68-0.9 315.83-0.9 315.83 0 301.63 0 301.63-0.9 304.38-0.9 304.38-22.9 301.63-22.9ZM344.33-11.75L344.33-11.75 345.78-11.75 345.78-15.6Q345.78-20.35 345.25-21.98 344.73-23.6 343.23-23.6L343.23-23.6Q342.33-23.6 341.6-23.13 340.88-22.65 340.88-21.83 340.88-21 341.18-20.15L341.18-20.15 342.43-20.15Q342.83-19.1 342.83-17.63 342.83-16.15 341.58-15.08 340.33-14 338.43-14L338.43-14Q334.13-14 334.13-18.15L334.13-18.15Q334.13-24.3 344.58-24.3L344.58-24.3Q350.53-24.3 352.8-22.28 355.08-20.25 355.08-14.85L355.08-14.85 355.08-4.7Q355.08-2.1 356.53-2.1L356.53-2.1Q358.23-2.1 358.53-7.25L358.53-7.25 359.28-7.2Q359.08-2.8 357.63-1.15 356.18 0.5 352.88 0.5L352.88 0.5Q346.88 0.5 345.98-3.2L345.98-3.2Q345.33-1.3 344.03-0.4 342.73 0.5 340.23 0.5L340.23 0.5Q332.83 0.5 332.83-5.55L332.83-5.55Q332.83-9.1 335.65-10.43 338.48-11.75 344.33-11.75ZM342.33-5.6Q342.33-3 342.6-2.25 342.88-1.5 343.65-1.5 344.43-1.5 345.1-2.78 345.78-4.05 345.78-6.3L345.78-6.3 345.78-10.95 345.43-10.95Q342.33-10.95 342.33-6.4L342.33-6.4 342.33-5.6ZM359.57-36.6L359.57-37.5 371.82-37.5 371.82-0.9 374.62-0.9 374.62 0 359.77 0 359.77-0.9 362.52-0.9 362.52-36.6 359.57-36.6Z" fill="#ffffff" data-fill-palette-color="secondary"></path><path d="M405.02-9.25L411.02-35 424.37-35 424.37-34.05 421.62-34.05 421.62-0.95 424.37-0.95 424.37 0 409.12 0 409.12-0.95 411.87-0.95 411.87-32.2 411.67-32.2 404.17 0 397.92 0 389.12-32.35 388.92-32.35 388.92-0.95 391.67-0.95 391.67 0 384.87 0 384.87-0.95 387.62-0.95 387.62-34.05 384.87-34.05 384.87-35 398.37-35 405.02-9.25ZM438.12-11.75L438.12-11.75 439.57-11.75 439.57-15.6Q439.57-20.35 439.04-21.98 438.52-23.6 437.02-23.6L437.02-23.6Q436.12-23.6 435.39-23.13 434.67-22.65 434.67-21.83 434.67-21 434.97-20.15L434.97-20.15 436.22-20.15Q436.62-19.1 436.62-17.63 436.62-16.15 435.37-15.08 434.12-14 432.22-14L432.22-14Q427.92-14 427.92-18.15L427.92-18.15Q427.92-24.3 438.37-24.3L438.37-24.3Q444.32-24.3 446.59-22.28 448.87-20.25 448.87-14.85L448.87-14.85 448.87-4.7Q448.87-2.1 450.32-2.1L450.32-2.1Q452.02-2.1 452.32-7.25L452.32-7.25 453.07-7.2Q452.87-2.8 451.42-1.15 449.96 0.5 446.67 0.5L446.67 0.5Q440.67 0.5 439.77-3.2L439.77-3.2Q439.12-1.3 437.82-0.4 436.52 0.5 434.02 0.5L434.02 0.5Q426.62 0.5 426.62-5.55L426.62-5.55Q426.62-9.1 429.44-10.43 432.27-11.75 438.12-11.75ZM436.12-5.6Q436.12-3 436.39-2.25 436.67-1.5 437.44-1.5 438.22-1.5 438.89-2.78 439.57-4.05 439.57-6.3L439.57-6.3 439.57-10.95 439.21-10.95Q436.12-10.95 436.12-6.4L436.12-6.4 436.12-5.6ZM470.26-22.4L470.26-22.4Q468.41-22.4 467.01-20 465.61-17.6 465.61-14.3L465.61-14.3 465.61-0.9 469.16-0.9 469.16 0 453.56 0 453.56-0.9 456.31-0.9 456.31-22.9 453.56-22.9 453.56-23.8 465.61-23.8 465.61-19Q466.26-21.55 468.11-22.93 469.96-24.3 472.31-24.3 474.66-24.3 476.14-22.98 477.61-21.65 477.61-19.23 477.61-16.8 476.51-15.5 475.41-14.2 473.14-14.2 470.86-14.2 469.79-15.7 468.71-17.2 469.51-19.85L469.51-19.85 471.31-19.85Q472.56-22.4 470.26-22.4ZM480.81-7.15L480.81-7.15 480.81-22.9 478.06-22.9 478.06-23.8 480.81-23.8 480.81-30.25 490.11-32.55 490.11-23.8 496.61-23.8 496.61-22.9 490.11-22.9 490.11-6.05Q490.11-3.7 490.59-2.6 491.06-1.5 492.56-1.5 494.06-1.5 495.19-3 496.31-4.5 496.66-7.1L496.66-7.1 497.51-7Q497.11-3.55 495.31-1.53 493.51 0.5 489.36 0.5 485.21 0.5 483.01-1.15 480.81-2.8 480.81-7.15Z" fill="#ffffff" data-fill-palette-color="accent"></path></g></svg></g></svg></g></svg></g></svg></g><g transform="matrix(1,0,0,1,155.77404084933846,0)"><svg viewBox="0 0 85.94951830132297 41.98307896917635" height="41.98307896917635" width="85.94951830132297"><g><svg xmlns="http://www.w3.org/2000/svg" xml:space="preserve" viewBox="4.115 6.226 92.09399999999997 55.273999999999994" x="8" y="0" height="41.98307896917635" width="69.94951830132297" class="icon-icon-0" data-fill-palette-color="accent" id="icon-0"><path d="M30.484 44.305a16.7 16.7 0 0 1 4.287-1.354V6.226h-1.829v2.776H31.37V6.226h-2.2v2.776h-1.573V6.226h-2.201v2.776h-1.572V6.226h-2.208v41.606h0.303a100 100 0 0 0 8.565-3.527M82.619 43.271V6.226h-1.967v2.856h-1.571V6.226h-2.2v2.856h-1.572V6.226h-2.201v2.856h-1.572V6.226h-2.07v35.829a34 34 0 0 1 3.607-0.197 32.4 32.4 0 0 1 9.546 1.413M46.01 44.938v-4.04c0-3.954 2.733-7.157 6.102-7.157 3.371 0 6.103 3.203 6.103 7.157v4.613c2.869-1.581 6.202-2.72 9.819-3.272V17.886h-3.146v2.853h-2.002v-2.853H59.74v2.853h-2.001v-2.853h-3.721v2.853h-2v-2.853h-3.146v2.853H46.87v-2.853h-3.146v2.853h-2.002v-2.853h-3.146v2.853h-2.002v22.004c3.277-0.165 6.379 0.755 9.436 2.195" fill="#ffffff" data-fill-palette-color="accent"></path><path d="M94.943 52.646q-0.005-0.01-0.014-0.02c-0.033 0.018-0.724 0.361-0.104 0.049-2.742-3.641-7.067-6.535-12.286-8.146-2.944-0.908-6.168-1.412-9.548-1.412a33.6 33.6 0 0 0-5.039 0.379c-3.618 0.554-6.951 1.691-9.819 3.271a23.6 23.6 0 0 0-4.817 3.496l-0.006-0.003c-2.45-1.524-4.862-2.997-7.302-4.144-3.057-1.439-6.159-2.36-9.437-2.197a16.69 16.69 0 0 0-6.089 1.563 99 99 0 0 1-8.566 3.527C11.79 52.646 4.211 53.564 4.115 53.576l0.324 2.812c0.487-0.057 11.519-1.385 25.116-7.377a95 95 0 0 0 2.13-0.967 13.9 13.9 0 0 1 3.085-1.022 12.4 12.4 0 0 1 1.802-0.239c2.972-0.174 5.835 0.717 8.752 2.146 1.975 0.968 3.98 2.179 6.059 3.467 0.307 0.188 0.609 0.377 0.919 0.568q0.434 0.27 0.873 0.543l0.483 0.299q0.059 0.037 0.119 0.074c5.771 3.563 12.305 7.261 20.457 7.62 0.365-0.004 8.537-0.118 19.683-5.243l0.086-0.042c0.119-0.055 0.244-0.119 0.365-0.176a65 65 0 0 0 1.841-0.89zM74.29 58.67c-7.175-0.317-12.983-3.488-18.501-6.875q0.083-0.068 0.164-0.137a21 21 0 0 1 3.938-2.652 25 25 0 0 1 2.889-1.258 28 28 0 0 1 5.176-1.387l0.078-0.013c0.445-0.072 0.896-0.14 1.354-0.19q0.037-0.004 0.078-0.008a31 31 0 0 1 3.529-0.205c3.416 0 6.652 0.555 9.548 1.54q0.038 0.015 0.078 0.029c3.95 1.36 7.239 3.537 9.469 6.215 0.05 0.058 0.103 0.112 0.149 0.171-10.318 4.629-17.934 4.768-17.949 4.77" fill="#ffffff" data-fill-palette-color="accent"></path></svg></g></svg></g><g><rect width="79.24092084933851" height="2.73956395656861" y="38.24351501260774" x="241.72355915066143" fill="#ffffff" data-fill-palette-color="secondary"></rect><rect width="79.24092084933851" height="2.73956395656861" y="38.24351501260774" x="76.53311999999997" fill="#ffffff" data-fill-palette-color="secondary"></rect></g></svg></g><defs></defs></svg><rect width="395.52" height="88.99940686870312" fill="none" stroke="none" visibility="hidden"></rect></g></svg></g></svg>